# xmcd
#
# Track frame offsets: 
#        150
#        18923
#        32074
#        46005
#        60710
#        76982
#        88949
#        108760
#        122002
#        147358
#        160050
#        173403
#        188066
#        204930
#        222379
#        236666
#        252945
#        270262
#
# Disc length: 3775 seconds
#
# Revision: 0
# Processed by: cddbd v1.5.2PL0 Copyright (c) Steve Scherf et al.
# Submitted via: ExactAudioCopy v1.0b3
#
DISCID=e50ebd12
DTITLE=Jimmy Buffett - Boats Beaches Bars and Ballads CD 2 - Beaches
DYEAR=1992
DGENRE=Pop/Rock
TTITLE0=Margaritaville
TTITLE1=Grapefruit-Juicy Fruit
TTITLE2=Ragtop Day
TTITLE3=Frank and Lola
TTITLE4=Tin Cup Chalice
TTITLE5=Knees Of My Heart
TTITLE6=Money Back Guarantee
TTITLE7=When The Coast Is Clear
TTITLE8=Biloxi
TTITLE9=Distantly In Love
TTITLE10=Coconut Telegraph
TTITLE11=Stars On The Water
TTITLE12=Who's The Blonde Stranger?
TTITLE13=I Have Found Me A Home
TTITLE14=Christmas In The Caribbean
TTITLE15=Volcano
TTITLE16=Brown Eyed Girl
TTITLE17=Cheeseburger In Paradise
EXTD=
EXTT0=
EXTT1=
EXTT2=
EXTT3=
EXTT4=
EXTT5=
EXTT6=
EXTT7=
EXTT8=
EXTT9=
EXTT10=
EXTT11=
EXTT12=
EXTT13=
EXTT14=
EXTT15=
EXTT16=
EXTT17=
PLAYORDER=
